<svg xmlns="http://www.w3.org/2000/svg" viewBox="0 0 512 512" width="512" height="512" role="img" aria-label="VaultBox">
  <defs>
    <linearGradient id="bg" x1="52" y1="42" x2="436" y2="474" gradientUnits="userSpaceOnUse">
      <stop offset="0%" stop-color="#111827"/>
      <stop offset="58%" stop-color="#0C1220"/>
      <stop offset="100%" stop-color="#0A0E17"/>
    </linearGradient>
    <linearGradient id="panel" x1="86" y1="82" x2="418" y2="430" gradientUnits="userSpaceOnUse">
      <stop offset="0%" stop-color="#151E2F"/>
      <stop offset="100%" stop-color="#0B1322"/>
    </linearGradient>
    <linearGradient id="safeStroke" x1="140" y1="140" x2="372" y2="376" gradientUnits="userSpaceOnUse">
      <stop offset="0%" stop-color="#94CAFF"/>
      <stop offset="55%" stop-color="#58A6FF"/>
      <stop offset="100%" stop-color="#316FDC"/>
    </linearGradient>
    <linearGradient id="safeBody" x1="156" y1="140" x2="344" y2="390" gradientUnits="userSpaceOnUse">
      <stop offset="0%" stop-color="#121C2D"/>
      <stop offset="100%" stop-color="#0C1524"/>
    </linearGradient>
    <radialGradient id="doorWell" cx="50%" cy="46%" r="65%">
      <stop offset="0%" stop-color="#182437"/>
      <stop offset="100%" stop-color="#0A1220"/>
    </radialGradient>
    <filter id="softGlow" x="-40%" y="-40%" width="180%" height="180%">
      <feGaussianBlur stdDeviation="18" result="blur"/>
      <feMerge>
        <feMergeNode in="blur"/>
        <feMergeNode in="SourceGraphic"/>
      </feMerge>
    </filter>
    <filter id="halo" x="-60%" y="-60%" width="220%" height="220%">
      <feGaussianBlur stdDeviation="28"/>
    </filter>
    <clipPath id="clip">
      <rect x="26" y="26" width="460" height="460" rx="116"/>
    </clipPath>
  </defs>
  <g clip-path="url(#clip)">
    <rect x="26" y="26" width="460" height="460" rx="116" fill="url(#bg)"/>
    <circle cx="186" cy="160" r="104" fill="#58A6FF" opacity="0.14" filter="url(#halo)"/>
    <circle cx="332" cy="348" r="92" fill="#4ADE80" opacity="0.10" filter="url(#halo)"/>
    <rect x="58" y="58" width="396" height="396" rx="96" fill="url(#panel)" stroke="#22324B" stroke-width="3"/>
    <path d="M102 126H198" stroke="#21344F" stroke-width="6" stroke-linecap="round" opacity="0.52"/>
    <path d="M320 390H418" stroke="#1D4038" stroke-width="6" stroke-linecap="round" opacity="0.46"/>
    <g filter="url(#softGlow)">
      <rect x="132" y="132" width="248" height="248" rx="68" fill="url(#safeBody)" stroke="url(#safeStroke)" stroke-width="18"/>
      <rect x="164" y="164" width="184" height="184" rx="50" fill="#0B121F" stroke="#304A70" stroke-width="3"/>
      <rect x="116" y="196" width="16" height="42" rx="8" fill="#365B8D"/>
      <rect x="116" y="274" width="16" height="42" rx="8" fill="#365B8D"/>
      <circle cx="256" cy="256" r="70" fill="url(#doorWell)" stroke="url(#safeStroke)" stroke-width="20"/>
      <circle cx="256" cy="256" r="18" fill="#4ADE80"/>
      <rect x="252" y="246" width="8" height="32" rx="4" fill="#081019"/>
      <path d="M256 204V234" stroke="#94CAFF" stroke-width="16" stroke-linecap="round"/>
      <path d="M256 278V308" stroke="#94CAFF" stroke-width="16" stroke-linecap="round"/>
      <path d="M204 256H234" stroke="#94CAFF" stroke-width="16" stroke-linecap="round"/>
      <path d="M278 256H308" stroke="#94CAFF" stroke-width="16" stroke-linecap="round"/>
      <circle cx="256" cy="186" r="10" fill="#14355B"/>
      <circle cx="326" cy="256" r="10" fill="#14355B"/>
      <circle cx="256" cy="326" r="10" fill="#14355B"/>
      <circle cx="186" cy="256" r="10" fill="#14355B"/>
    </g>
  </g>
  <rect x="26" y="26" width="460" height="460" rx="116" fill="none" stroke="#26344F" stroke-width="4"/>
</svg>
